<svg width="13" height="12" viewBox="0 0 13 12" fill="none" xmlns="http://www.w3.org/2000/svg">
<path d="M5.5616 1.54831C5.88293 0.675724 7.11707 0.675726 7.4384 1.54832L8.16738 3.52793C8.31217 3.92114 8.68676 4.18237 9.10577 4.18237H11.1712C12.1699 4.18237 12.5516 5.48524 11.7109 6.02424L10.2641 6.95169C9.86908 7.20494 9.70326 7.69879 9.86541 8.13912L10.467 9.77291C10.7984 10.6726 9.79612 11.4778 8.98895 10.9603L7.03969 9.71072C6.71079 9.49987 6.28921 9.49987 5.96031 9.71072L4.01105 10.9603C3.20388 11.4778 2.20164 10.6726 2.53296 9.77291L3.13459 8.13911C3.29674 7.69879 3.13092 7.20494 2.73588 6.95169L1.28914 6.02424C0.448366 5.48524 0.830123 4.18237 1.82883 4.18237H3.89423C4.31325 4.18237 4.68783 3.92114 4.83262 3.52793L5.5616 1.54831Z" fill="#F2994A"/>
</svg>
